# xmcd
#
# Track frame offsets: 
#        150
#        12720
#        26834
#        43262
#        61770
#        74865
#        87331
#        97548
#        118015
#        133882
#
# Disc length: 2001 seconds
#
# Revision: 0
# Processed by: cddbd v1.5.2PL0 Copyright (c) Steve Scherf et al.
# Submitted via: ExactAudioCopy v0.99pb5
#
DISCID=8f07cf0a
DTITLE=Kenny Robbins - Greatest Hits - Volume 1
DYEAR=2003
DGENRE=Country
TTITLE0=What if Jesus Came to LA (in a big white Peterbilt)
TTITLE1=Jesus Heroes
TTITLE2=On the Road to Glory
TTITLE3=Will There be Any Truckers in Heaven
TTITLE4=Covered in Blood
TTITLE5=I Can Feel My Mountain Move
TTITLE6=Beauregard
TTITLE7=No Scales In Heaven
TTITLE8=Telling the Devil Where to Go
TTITLE9=Grace is Amazing Me
EXTD=
EXTT0=
EXTT1=
EXTT2=
EXTT3=
EXTT4=
EXTT5=
EXTT6=
EXTT7=
EXTT8=
EXTT9=
PLAYORDER=
